<svg width="32.000000" height="32.000000" viewBox="0 0 32 32" fill="none" xmlns="http://www.w3.org/2000/svg" xmlns:xlink="http://www.w3.org/1999/xlink">
	<desc>
			Created with Pixso.
	</desc>
	<defs/>
	<path id="Vector" d="M0.97 9.38C0.07 10.03 -0.47 11.4 0.54 13.04C1.54 14.68 15.88 25.74 16.41 26.04C16.93 26.35 17.46 26.4 18.8 25.33C20.13 24.25 31.32 15.85 31.61 15.6C32.07 15.2 32.18 14.22 31.61 13.76C31.61 13.76 18.06 23.89 17.62 24.3C17.17 24.71 16.48 24.05 16.61 23.18C16.74 22.31 16.84 22.2 18.56 20.87C20.28 19.54 30.04 12.15 30.48 11.82C30.98 11.45 30.99 10.8 30.17 10.22C29.03 9.41 16.69 0.64 16.28 0.33C15.87 0.03 15.29 -0.25 14.43 0.36C13.57 0.98 2.64 8.19 0.97 9.38Z" fill="#316DC2" fill-opacity="1.000000" fill-rule="evenodd"/>
	<path id="Vector" d="M16.41 27.12C16.06 26.92 9.77 22.09 5.2 18.33L5.2 26.17C5.2 31.9 21.33 34.96 26.67 27.92L26.67 20.42C23.39 22.9 19.55 25.8 18.8 26.41C17.46 27.48 16.93 27.43 16.41 27.12Z" fill="#316DC2" fill-opacity="1.000000" fill-rule="evenodd"/>
	<path id="Vector" d="M23.23 18.52C23.23 18.52 25.63 19.73 25.8 24.58L24.64 24.26L23.71 26.24C23.32 20.92 21.17 20.15 21.17 20.15L23.23 18.52Z" fill="#98B8E6" fill-opacity="1.000000" fill-rule="nonzero"/>
</svg>
