<svg xmlns="http://www.w3.org/2000/svg" fill="none" viewBox="0 0 32 32"><path id="Vector" fill="#316DC2" fill-opacity="1.000000" fill-rule="evenodd" d="M.97 9.38c-.9.65-1.44 2.02-.43 3.66 1 1.64 15.34 12.7 15.87 13s1.05.36 2.39-.71c1.33-1.08 12.52-9.48 12.81-9.73.46-.4.57-1.38 0-1.84 0 0-13.55 10.13-13.99 10.54-.45.41-1.14-.25-1.01-1.12s.23-.98 1.95-2.31 11.48-8.72 11.92-9.05c.5-.37.51-1.02-.31-1.6l-13.89-9.89c-.41-.3-.99-.58-1.85.03-.86.62-11.79 7.83-13.46 9.02"/><path id="Vector" fill="#316DC2" fill-opacity="1.000000" fill-rule="evenodd" d="M16.41 27.12c-.35-.2-6.64-5.03-11.21-8.79v7.84c0 5.73 16.13 8.79 21.47 1.75v-7.5c-3.28 2.48-7.12 5.38-7.87 5.99-1.34 1.07-1.87 1.02-2.39.71"/><path id="Vector" fill="#98B8E6" fill-opacity="1.000000" fill-rule="nonzero" d="M23.23 18.52s2.4 1.21 2.57 6.06l-1.16-.32-.93 1.98c-.39-5.32-2.54-6.09-2.54-6.09z"/></svg>