<svg xmlns="http://www.w3.org/2000/svg" xmlns:xlink="http://www.w3.org/1999/xlink"><symbol id="sprite-angle" fill="none" viewBox="0 0 20 20"><path fill="#fff" d="M20 20a20 20 0 0 1-20-20v20z"/></symbol><use xlink:href="#sprite-angle" width="20" height="20"/><view id="sprite-angle-view" viewBox="0 0 20 20"/><symbol id="sprite-arrow-down-grey" fill="none" viewBox="0 0 15.215 7.59"><path stroke="#484848" d="m.33.37 7.27 6.54 7.27-6.54"/></symbol><use xlink:href="#sprite-arrow-down-grey" width="15.215" height="7.59" y="20"/><view id="sprite-arrow-down-grey-view" viewBox="0 20 15.215 7.59"/><symbol id="sprite-arrow-down" fill="none" viewBox="0 0 22 11"><path stroke="#fff" d="m21 1-10 9-10-9"/></symbol><use xlink:href="#sprite-arrow-down" width="22" height="11" y="27.59"/><view id="sprite-arrow-down-view" viewBox="0 27.59 22 11"/><symbol id="sprite-arrow-thin" fill="none" viewBox="0 0 7.083 7.083"><path stroke="#FFF" stroke-width=".8" d="m.28 6.79 6.4-6.4m0 6.36v-6.36h-6.36"/></symbol><use xlink:href="#sprite-arrow-thin" width="7.083" height="7.083" y="38.59"/><view id="sprite-arrow-thin-view" viewBox="0 38.59 7.083 7.083"/><symbol id="sprite-arrow-up-grey" fill="none" viewBox="0 0 15.215 7.59"><path stroke="#484848" d="m.33 7.21 7.27-6.54 7.28 6.54"/></symbol><use xlink:href="#sprite-arrow-up-grey" width="15.215" height="7.59" y="45.673"/><view id="sprite-arrow-up-grey-view" viewBox="0 45.673 15.215 7.59"/><symbol id="sprite-arrow-up" fill="none" viewBox="0 0 15.215 7.59"><path stroke="#FFF" d="m.33 7.21 7.27-6.54 7.28 6.54"/></symbol><use xlink:href="#sprite-arrow-up" width="15.215" height="7.59" y="53.263000000000005"/><view id="sprite-arrow-up-view" viewBox="0 53.263000000000005 15.215 7.59"/><symbol id="sprite-arrow" fill="none" viewBox="0 0 9.509 9.508"><path stroke="#316DC2" stroke-width="1.667" d="M0 4.51h8.33m-4.14-3.91 4.14 3.91-4.14 4.42"/></symbol><use xlink:href="#sprite-arrow" width="9.509" height="9.508" y="60.85300000000001"/><view id="sprite-arrow-view" viewBox="0 60.85300000000001 9.509 9.508"/><symbol id="sprite-check" fill="none" viewBox="0 0 22 20"><path stroke="#316DC2" stroke-linecap="round" stroke-linejoin="round" d="m1 8.5 7.37 10.5 12.63-18"/></symbol><use xlink:href="#sprite-check" width="22" height="20" y="70.361"/><view id="sprite-check-view" viewBox="0 70.361 22 20"/><symbol id="sprite-cross" fill="none" viewBox="0 0 20 20"><path stroke="#316DC2" stroke-linecap="round" stroke-linejoin="round" d="m1 19 9-9m0 0 9-9m-9 9 9 9m-9-9-9-9"/></symbol><use xlink:href="#sprite-cross" width="20" height="20" y="90.361"/><view id="sprite-cross-view" viewBox="0 90.361 20 20"/><symbol id="sprite-logotype" fill="none" viewBox="0 0 30 30"><path fill="#316DC2" d="M.92 8.8c-.85.6-1.35 1.9-.41 3.43s14.38 11.9 14.88 12.2c.49.28.98.33 2.24-.68 1.25-1 11.74-8.88 12-9.12.44-.38.54-1.3 0-1.73 0 0-12.7 9.5-13.11 9.89-.42.38-1.06-.24-.94-1.06.12-.81.2-.9 1.82-2.16l11.18-8.48c.47-.35.48-.96-.3-1.5l-13.01-9.27c-.4-.3-.93-.55-1.73.02-.81.58-11.06 7.35-12.62 8.46"/><path fill="#316DC2" d="M15.39 25.43c-.33-.19-6.23-4.71-10.51-8.24v7.35c0 5.37 15.12 8.24 20.13 1.64v-7.03a766 766 0 0 0-7.38 5.61c-1.26 1-1.75.96-2.24.67"/><path fill="#98B8E6" d="M21.78 17.37s2.25 1.13 2.41 5.68l-1.09-.3-.87 1.85c-.37-4.98-2.37-5.7-2.37-5.7z"/></symbol><use xlink:href="#sprite-logotype" width="30" height="30" y="110.361"/><view id="sprite-logotype-view" viewBox="0 110.361 30 30"/><symbol id="sprite-menu" fill="none" viewBox="0 0 22 12"><path stroke="#316DC2" stroke-linecap="round" d="M1 1h20m-20 5h20m-20 5h20"/></symbol><use xlink:href="#sprite-menu" width="22" height="12" y="140.361"/><view id="sprite-menu-view" viewBox="0 140.361 22 12"/><symbol id="sprite-minus" fill="none" viewBox="0 0 20 2"><path stroke="#316DC2" d="M0 1h20"/></symbol><use xlink:href="#sprite-minus" width="20" height="2" y="152.361"/><view id="sprite-minus-view" viewBox="0 152.361 20 2"/><symbol id="sprite-odnoklassniki" fill="none" viewBox="0 0 14 22"><path fill="#316DC2" d="M7 3.33c1.32 0 2.4 1.05 2.4 2.35s-1.08 2.35-2.4 2.35a2.4 2.4 0 0 1-2.4-2.35c0-1.3 1.08-2.35 2.4-2.35m0 8.03c3.2 0 5.8-2.55 5.8-5.68s-2.6-5.68-5.8-5.68a5.74 5.74 0 0 0-5.79 5.68c0 3.13 2.6 5.68 5.79 5.68m2.34 4.63q1.78-.4 3.37-1.37a1.65 1.65 0 0 0 .53-2.3 1.7 1.7 0 0 0-2.34-.52 7.5 7.5 0 0 1-7.8 0 1.7 1.7 0 0 0-2.34.53c-.5.77-.26 1.8.53 2.29q1.59.96 3.37 1.37l-3.24 3.17c-.66.65-.66 1.7 0 2.35a1.7 1.7 0 0 0 2.4 0l3.18-3.12 3.18 3.12c.67.65 1.74.65 2.4 0s.66-1.7 0-2.35z"/></symbol><use xlink:href="#sprite-odnoklassniki" width="14" height="22" y="154.361"/><view id="sprite-odnoklassniki-view" viewBox="0 154.361 14 22"/><symbol id="sprite-pin" fill="none" viewBox="0 0 16 22"><path fill="#316DC2" fill-rule="evenodd" d="M4.04 1.03a8 8 0 0 1 11.96 6.96c-.06 2.8-1.65 5.42-3.65 7.45a21 21 0 0 1-3.84 3.1q-.21.12-.46.16a1 1 0 0 1-.45-.13c-2.13-1.33-4-3.02-5.53-5a10 10 0 0 1-2.07-5.72 7.8 7.8 0 0 1 4.04-6.82m1.44 7.98c.42 1 1.41 1.65 2.51 1.65.72 0 1.41-.27 1.92-.77a2.64 2.64 0 0 0-.87-4.35 2.8 2.8 0 0 0-2.97.57 2.6 2.6 0 0 0-.6 2.9Z" clip-rule="evenodd"/><path fill="#316DC2" d="M13.71 20.9c0 .6-2.55 1.1-5.71 1.1s-5.71-.5-5.71-1.1 2.55-1.1 5.71-1.1 5.71.5 5.71 1.1"/></symbol><use xlink:href="#sprite-pin" width="16" height="22" y="176.361"/><view id="sprite-pin-view" viewBox="0 176.361 16 22"/><symbol id="sprite-plus" fill="none" viewBox="0 0 20 20"><path stroke="#316DC2" d="M10 0v10m0 0v10m0-10h-10m10 0h10"/></symbol><use xlink:href="#sprite-plus" width="20" height="20" y="198.361"/><view id="sprite-plus-view" viewBox="0 198.361 20 20"/><symbol id="sprite-reddit" fill="none" viewBox="0 0 20 22"><path fill="#316DC2" d="M11.95.5a2.1 2.1 0 0 0-1.63.83c-.39.5-.6 1.1-.76 1.73a15 15 0 0 0-.34 3.16c-1.8.13-3.43.7-4.79 1.56a2.8 2.8 0 0 0-1.85-.75 2.4 2.4 0 0 0-1.92 1 3.8 3.8 0 0 0 .27 4.64q-.11.57-.12 1.18c0 4.23 4.11 7.65 9.19 7.65s9.2-3.43 9.2-7.65q-.01-.6-.13-1.18a3.8 3.8 0 0 0 .27-4.63 2.4 2.4 0 0 0-1.92-1.01c-.64 0-1.3.26-1.85.75a10 10 0 0 0-4.77-1.56c.03-.93.1-1.9.27-2.64q.17-.7.39-.98c.22-.28.25-.26.49-.26.52 0 .58.18.9.6.15.22.34.5.63.75.29.27.72.5 1.19.5v-1.85c-.13 0-.16 0-.24-.09q-.13-.14-.4-.51c-.35-.5-1.05-1.24-2.08-1.24m5.05.17c-1.2 0-2.19 1.16-2.19 2.6 0 1.42.98 2.58 2.2 2.58 1.2 0 2.18-1.16 2.18-2.59s-.98-2.59-2.19-2.59m0 .92c.78 0 1.41.75 1.41 1.67s-.63 1.67-1.4 1.67c-.79 0-1.42-.75-1.42-1.67s.64-1.67 1.41-1.67m-7 6.07c4.3 0 7.95 2.84 7.95 6.19s-3.64 6.18-7.95 6.18c-4.3 0-7.95-2.83-7.95-6.18s3.64-6.19 7.95-6.19m-7.4.84q.34 0 .66.17a8 8 0 0 0-1.82 2.42c-.3-.72-.21-1.6.15-2.07a1.2 1.2 0 0 1 1.02-.52Zm14.8 0q.6 0 1.01.52c.36.47.44 1.35.15 2.07a8 8 0 0 0-1.82-2.42q.33-.17.65-.17Zm-10.51 2.3c-.78 0-1.41.75-1.41 1.67s.63 1.67 1.4 1.67c.79 0 1.42-.75 1.42-1.67s-.63-1.67-1.41-1.67m6.22 0c-.78 0-1.4.75-1.4 1.67s.62 1.67 1.4 1.67 1.41-.75 1.41-1.67-.63-1.67-1.4-1.67Zm-6.98 5.67a4.3 4.3 0 0 0 3.87 2.38 4.3 4.3 0 0 0 3.9-2.38 6.6 6.6 0 0 1-3.9 1.15 6.5 6.5 0 0 1-3.87-1.15"/></symbol><use xlink:href="#sprite-reddit" width="20" height="22" y="218.361"/><view id="sprite-reddit-view" viewBox="0 218.361 20 22"/><symbol id="sprite-star" fill="none" viewBox="0 0 18 22"><path fill="#fff" d="m9 0 3.01 5.47 5.99.03-2.97 5.5 2.97 5.5-5.99.03-3.01 5.47-3.01-5.47-5.99-.03 2.97-5.5-2.97-5.5 5.99-.03z"/></symbol><use xlink:href="#sprite-star" width="18" height="22" y="240.361"/><view id="sprite-star-view" viewBox="0 240.361 18 22"/><symbol id="sprite-vk" fill="none" viewBox="0 0 22 12"><path fill="#316DC2" d="M21.8 10.7c-.06-.1-.42-.85-2.18-2.41-1.84-1.64-1.6-1.37.62-4.2 1.35-1.72 1.9-2.77 1.73-3.22-.16-.43-1.16-.32-1.16-.32l-3.3.02s-.25-.03-.43.07-.3.34-.3.34-.52 1.33-1.22 2.47c-1.47 2.39-2.06 2.51-2.3 2.37-.56-.35-.42-1.4-.42-2.14 0-2.31.37-3.28-.72-3.53a6 6 0 0 0-1.54-.15c-1.18 0-2.18 0-2.74.27-.38.18-.67.57-.5.6.22.02.72.12.98.46.34.44.33 1.43.33 1.43s.2 2.73-.46 3.07c-.44.23-1.05-.24-2.37-2.41-.67-1.11-1.18-2.34-1.18-2.34s-.1-.23-.27-.35c-.21-.15-.51-.2-.51-.2l-3.14.02s-.47.01-.65.2c-.15.18-.01.54-.01.54s2.46 5.5 5.25 8.28c2.55 2.55 5.45 2.38 5.45 2.38h1.32s.4-.04.6-.25.18-.55.18-.55-.03-1.69.8-1.94c.8-.24 1.84 1.63 2.93 2.35.84.55 1.47.43 1.47.43l2.94-.04s1.53-.1.8-1.25"/></symbol><use xlink:href="#sprite-vk" width="22" height="12" y="262.361"/><view id="sprite-vk-view" viewBox="0 262.361 22 12"/></svg>